<?xml version="1.0" ?><!DOCTYPE svg  PUBLIC '-//W3C//DTD SVG 1.1//EN'  'http://www.w3.org/Graphics/SVG/1.1/DTD/svg11.dtd'><svg enable-background="new 0 -1 28 29" height="29px" version="1.1" viewBox="0 -1 28 29" width="28px" xml:space="preserve" xmlns="http://www.w3.org/2000/svg" xmlns:xlink="http://www.w3.org/1999/xlink"><defs/><path clip-rule="evenodd" d="M26.1,20.9c1.6,1.6,1.6,4.1,0,5.7s-4.1,1.6-5.7,0l-8.5-8.4  c-0.2-0.2-0.4-0.5-0.6-0.8c-3.2,0.9-6.7-0.1-8.9-2.8l-0.5-0.7C-0.3,11.2-0.6,7.5,1,4.6c0,0,0,0.1,0.1,0.1l3.9,5  c1.2,1.5,3.3,1.7,4.8,0.5c1.5-1.2,1.7-3.3,0.5-4.8l-3.9-5c0,0-0.1-0.1-0.1-0.1c3.2-0.9,6.7,0.1,8.9,2.8l0.5,0.7  c2,2.4,2.4,5.6,1.4,8.3c0.2,0.1,0.3,0.2,0.5,0.4L26.1,20.9z M23.3,25.3c0.8,0,1.4-0.6,1.4-1.4c0-0.8-0.6-1.4-1.4-1.4  c-0.8,0-1.4,0.6-1.4,1.4C21.9,24.6,22.5,25.3,23.3,25.3z" fill="#0D0D0D" fill-rule="evenodd"/></svg>